<svg width="20" height="20" viewBox="0 0 20 20" fill="none" xmlns="http://www.w3.org/2000/svg">
<g clip-path="url(#clip0_2066_18804)">
<path d="M18.8691 10.3281C18.8085 11.9685 18.2932 13.5623 17.3789 14.9307C16.4038 16.39 15.018 17.5275 13.3965 18.1992C11.7748 18.8709 9.99014 19.0465 8.26855 18.7041C6.54701 18.3616 4.96578 17.5166 3.72461 16.2754C2.48344 15.0342 1.63835 13.453 1.2959 11.7314C0.953455 10.0099 1.12905 8.22521 1.80078 6.60352C2.4725 4.98198 3.60999 3.59624 5.06934 2.62109C6.52882 1.6459 8.24469 1.125 10 1.125H10.001L10.4404 1.13672C12.633 1.24797 14.7128 2.16786 16.2725 3.72754C17.936 5.3911 18.8721 7.64639 18.875 9.99902V10L18.8691 10.3281Z" stroke="#680040" stroke-width="1.5"/>
</g>
<defs>
<clipPath id="clip0_2066_18804">
<rect width="20" height="20" fill="white"/>
</clipPath>
</defs>
</svg>
