<svg width="10" height="10" viewBox="0 0 10 10" fill="none" xmlns="http://www.w3.org/2000/svg">
<g clip-path="url(#clip0_2066_18645)">
<path d="M9.15144 4.48637L7.39363 6.00317L7.92918 8.27153C7.95872 8.39467 7.95112 8.5238 7.90731 8.64262C7.8635 8.76143 7.78547 8.8646 7.68306 8.93909C7.58065 9.01358 7.45846 9.05604 7.33193 9.06112C7.20539 9.0662 7.08019 9.03366 6.97214 8.96762L4.99949 7.75356L3.02566 8.96762C2.91762 9.03328 2.79258 9.06551 2.66626 9.06024C2.53995 9.05498 2.41801 9.01246 2.31582 8.93803C2.21362 8.86361 2.13573 8.76061 2.09195 8.64201C2.04817 8.52341 2.04047 8.3945 2.0698 8.27153L2.6073 6.00317L0.849487 4.48637C0.753901 4.40376 0.684771 4.29482 0.650731 4.17315C0.616691 4.05148 0.619249 3.92248 0.658087 3.80226C0.696925 3.68204 0.770321 3.57592 0.869108 3.49716C0.967896 3.4184 1.0877 3.3705 1.21355 3.35942L3.51824 3.17348L4.4073 1.02192C4.45542 0.90466 4.53733 0.804359 4.6426 0.733769C4.74787 0.663179 4.87176 0.625488 4.99851 0.625488C5.12526 0.625488 5.24915 0.663179 5.35442 0.733769C5.45969 0.804359 5.5416 0.90466 5.58972 1.02192L6.47839 3.17348L8.78308 3.35942C8.90918 3.37008 9.02934 3.41772 9.12848 3.49637C9.22763 3.57502 9.30136 3.68118 9.34044 3.80155C9.37952 3.92192 9.38221 4.05114 9.34817 4.17303C9.31414 4.29492 9.24489 4.40406 9.1491 4.48676L9.15144 4.48637Z" fill="#F58232"/>
</g>
<defs>
<clipPath id="clip0_2066_18645">
<rect width="10" height="10" fill="white"/>
</clipPath>
</defs>
</svg>
