<svg width="24" height="24" viewBox="0 0 24 24" fill="none" xmlns="http://www.w3.org/2000/svg">
<g clip-path="url(#clip0_2066_20814)">
<mask id="mask0_2066_20814" style="mask-type:luminance" maskUnits="userSpaceOnUse" x="1" y="-1" width="22" height="25">
<path d="M1.5 -0.132812H22.46V23.8672H1.5V-0.132812Z" fill="white"/>
</mask>
<g mask="url(#mask0_2066_20814)">
<path d="M19.33 4.67816C18.5278 4.15749 17.8681 3.44497 17.4106 2.6051C16.9531 1.76524 16.7123 0.824539 16.71 -0.131836H12.578L12.571 16.4032C12.5361 17.2995 12.1558 18.1475 11.5098 18.7697C10.8637 19.3919 10.002 19.74 9.105 19.7412C8.523 19.7412 7.975 19.5962 7.493 19.3432C6.93211 19.05 6.46212 18.6089 6.13391 18.0678C5.80571 17.5267 5.63179 16.9061 5.631 16.2732C5.63285 15.3531 5.99951 14.4713 6.65057 13.8212C7.30162 13.1711 8.18393 12.8057 9.104 12.8052C9.462 12.8052 9.804 12.8632 10.129 12.9652V8.75216C9.7894 8.70433 9.44695 8.6796 9.104 8.67816C4.912 8.67816 1.5 12.0852 1.5 16.2732C1.50065 17.4944 1.7962 18.6975 2.36151 19.7801C2.92682 20.8626 3.74517 21.7927 4.747 22.4912C6.02329 23.3886 7.54579 23.8695 9.106 23.8682C13.299 23.8682 16.711 20.4612 16.711 16.2732V7.88816C18.3865 9.09078 20.3976 9.73652 22.46 9.73416V5.60716C21.3485 5.60781 20.2608 5.28564 19.33 4.67816Z" fill="#680040"/>
</g>
</g>
<defs>
<clipPath id="clip0_2066_20814">
<rect width="24" height="24" fill="white"/>
</clipPath>
</defs>
</svg>
